<svg xmlns="http://www.w3.org/2000/svg" viewBox="0 0 1200 675" role="img" aria-labelledby="title desc">
  <title id="title">TC4 titanium electromagnetic bulging at room temperature</title>
  <desc id="desc">A copper driver transfers electromagnetic loading to a TC4 titanium sheet, with impact force and workpiece deformation separated in time.</desc>
  <defs>
    <marker id="arrow" markerWidth="10" markerHeight="10" refX="8" refY="3" orient="auto" markerUnits="strokeWidth">
      <path d="M0,0 L0,6 L9,3 z" fill="context-stroke"/>
    </marker>
    <style>
      text { font-family: Arial, "Noto Sans SC", "Microsoft YaHei", sans-serif; letter-spacing: 0; }
      .kicker { font-size: 16px; font-weight: 700; }
      .title { font-size: 29px; font-weight: 750; fill: #17231f; }
      .panel-title { font-size: 18px; font-weight: 700; }
      .label { font-size: 18px; fill: #17231f; }
      .small { font-size: 15px; fill: #60706a; }
      .micro { font-size: 13px; fill: #60706a; }
      .strong { font-weight: 700; }
      .metric { font-size: 27px; font-weight: 750; fill: #174a3a; }
    </style>
  </defs>
  <rect width="1200" height="675" fill="#f4f8f6"/>
  <rect x="26" y="26" width="1148" height="623" rx="8" fill="#ffffff" stroke="#cfdad6" stroke-width="2"/>
  <text x="56" y="62" class-="kicker" fill="#16827c">数值仿真 · 实验验证</text>
  <text x="56" y="103" class-="title"><tspan x="56" dy="0">TC4 titanium electromagnetic bulging at room temperature</tspan></text>
  <line x1="56" y1="142" x2="1144" y2="142" stroke="#cfdad6" stroke-width="2"/>
  <g transform="translate(0 0)"><rect x="55" y="185" width="610" height="380" fill="#ffffff" stroke="#cfdad6" rx="6" stroke-width="2"/><rect x="55" y="185" width="8" height="380" fill="#367f9d" stroke="#367f9d" rx="4" stroke-width="0"/><text x="81" y="219" class-="panel-title" fill="#367f9d">室温电磁胀形 PROCESS</text><ellipse cx="355" cy="485" rx="200" ry="38" fill="none" stroke="#d99a32" stroke-width="5"/><ellipse cx="355" cy="485" rx="160" ry="38" fill="none" stroke="#d99a32" stroke-width="5"/><ellipse cx="355" cy="485" rx="120" ry="38" fill="none" stroke="#d99a32" stroke-width="5"/><ellipse cx="355" cy="485" rx="80" ry="38" fill="none" stroke="#d99a32" stroke-width="5"/><path d="M 150 430 C 235 245, 475 245, 560 430" fill="#d6b779" stroke="#cc624f" stroke-width="4"/><path d="M 165 438 C 250 275, 460 275, 545 438" fill="none" stroke="#16827c" stroke-width="5" dash="12 8"/><text x="355" y="225" class-="panel-title" text-anchor="middle" fill="#d99a32">T3 紫铜驱动片</text><text x="355" y="535" class-="small strong" text-anchor="middle">TC4 钛合金</text><rect x="700" y="185" width="445" height="380" fill="#ffffff" stroke="#cfdad6" rx="6" stroke-width="2"/><rect x="700" y="185" width="8" height="380" fill="#cc624f" stroke="#cc624f" rx="4" stroke-width="0"/><text x="726" y="219" class-="panel-title" fill="#cc624f">载荷与响应 RESPONSE</text><line x1="760" y1="485" x2="1095" y2="485" stroke="#cfdad6" stroke-width="3"/><line x1="760" y1="485" x2="760" y2="255" stroke="#cfdad6" stroke-width="3"/><path d="M 770 455 C 805 405, 830 280, 870 275 S 930 420, 975 450" fill="none" stroke="#d99a32" stroke-width="5"/><path d="M 785 465 C 850 455, 865 350, 915 320 S 1005 390, 1080 440" fill="none" stroke="#cc624f" stroke-width="5"/><text x="920" y="275" class-="small strong" fill="#d99a32">电磁力</text><text x="1020" y="350" class-="small strong" fill="#cc624f">冲击力</text><line x1="860" y1="510" x2="1035" y2="510" stroke="#16827c" stroke-width="4" marker-end="url(#arrow)"/><text x="945" y="542" class-="small strong" text-anchor="middle" fill="#16827c">工件变形滞后</text></g>
</svg>
