<svg xmlns="http://www.w3.org/2000/svg" viewBox="0 0 1200 675" role="img" aria-labelledby="title desc">
  <title id="title">Filler wire changes joint performance</title>
  <desc id="desc">ER4043 and ER5356 filler wires produce different balances of tensile strength, fatigue strength, and corrosion resistance in hybrid laser welded aluminum joints.</desc>
  <defs>
    <marker id="arrow" markerWidth="10" markerHeight="10" refX="8" refY="3" orient="auto" markerUnits="strokeWidth">
      <path d="M0,0 L0,6 L9,3 z" fill="context-stroke"/>
    </marker>
    <style>
      text { font-family: Arial, "Noto Sans SC", "Microsoft YaHei", sans-serif; letter-spacing: 0; }
      .kicker { font-size: 16px; font-weight: 700; }
      .title { font-size: 29px; font-weight: 750; fill: #17231f; }
      .panel-title { font-size: 18px; font-weight: 700; }
      .label { font-size: 18px; fill: #17231f; }
      .small { font-size: 15px; fill: #60706a; }
      .micro { font-size: 13px; fill: #60706a; }
      .strong { font-weight: 700; }
      .metric { font-size: 27px; font-weight: 750; fill: #174a3a; }
    </style>
  </defs>
  <rect width="1200" height="675" fill="#f4f8f6"/>
  <rect x="26" y="26" width="1148" height="623" rx="8" fill="#ffffff" stroke="#cfdad6" stroke-width="2"/>
  <text x="56" y="62" class-="kicker" fill="#16827c">AA6061-T6 · HYBRID LASER WELDING</text>
  <text x="56" y="103" class-="title"><tspan x="56" dy="0">Filler wire changes joint performance</tspan></text>
  <line x1="56" y1="142" x2="1144" y2="142" stroke="#cfdad6" stroke-width="2"/>
  <g transform="translate(0 0)"><rect x="55" y="185" width="470" height="380" fill="#ffffff" stroke="#cfdad6" rx="6" stroke-width="2"/><rect x="55" y="185" width="8" height="380" fill="#cc624f" stroke="#cc624f" rx="4" stroke-width="0"/><text x="81" y="219" class-="panel-title" fill="#cc624f">HYBRID LASER WELDING</text><rect x="95" y="410" width="175" height="52" fill="#c6d4d9" stroke="#17231f" rx="2" stroke-width="2"/><rect x="310" y="410" width="175" height="52" fill="#c6d4d9" stroke="#17231f" rx="2" stroke-width="2"/><polygon points="270,410 310,410 345,462 235,462" fill="#e0a66b" stroke="#17231f" stroke-width="2"/><polygon points="250,230 285,230 310,395 240,395" fill="#fde3a7" stroke="#d99a32" stroke-width="3"/><line x1="405" y1="245" x2="304" y2="385" stroke="#16827c" stroke-width="9" marker-end="url(#arrow)"/><text x="410" y="230" class-="small strong" text-anchor="middle" fill="#16827c">filler wire</text><path d="M 160 360 q 18 -23 36 0 t 36 0 t 36 0" fill="none" stroke="#367f9d" stroke-width="4"/><text x="290" y="510" class-="small strong" text-anchor="middle">AA6061-T6 joint</text><rect x="565" y="185" width="275" height="380" fill="#ffffff" stroke="#d99a32" rx="6" stroke-width="3"/><text x="590" y="230" class-="panel-title" fill="#d99a32">ER4043</text><rect x="870" y="185" width="275" height="380" fill="#ffffff" stroke="#367f9d" rx="6" stroke-width="3"/><text x="895" y="230" class-="panel-title" fill="#367f9d">ER5356</text><text x="590" y="290" class-="small strong">Tensile strength</text><rect x="590" y="308" width="170.0" height="14" fill="#d99a32" stroke="none" rx="7" stroke-width="0"/><text x="895" y="290" class-="small strong">Tensile strength</text><rect x="895" y="308" width="130.0" height="14" fill="#367f9d" stroke="none" rx="7" stroke-width="0"/><text x="590" y="370" class-="small strong">Fatigue strength</text><rect x="590" y="388" width="96.0" height="14" fill="#d99a32" stroke="none" rx="7" stroke-width="0"/><text x="895" y="370" class-="small strong">Fatigue strength</text><rect x="895" y="388" width="156.0" height="14" fill="#367f9d" stroke="none" rx="7" stroke-width="0"/><text x="590" y="450" class-="small strong">Corrosion resistance</text><rect x="590" y="468" width="90.0" height="14" fill="#d99a32" stroke="none" rx="7" stroke-width="0"/><text x="895" y="450" class-="small strong">Corrosion resistance</text><rect x="895" y="468" width="152.0" height="14" fill="#367f9d" stroke="none" rx="7" stroke-width="0"/><text x="705" y="525" class-="small" text-anchor="middle">performance trade-off</text><text x="1010" y="525" class-="small" text-anchor="middle">performance trade-off</text></g>
</svg>
