<svg xmlns="http://www.w3.org/2000/svg" viewBox="0 0 1200 675" role="img" aria-labelledby="title desc">
  <title id="title">Crystal plasticity from nanoscale to welded joint</title>
  <desc id="desc">Micropillar measurements inform crystal-plasticity modeling, which predicts the macroscale yield behavior of an aluminum-alloy fusion zone.</desc>
  <defs>
    <marker id="arrow" markerWidth="10" markerHeight="10" refX="8" refY="3" orient="auto" markerUnits="strokeWidth">
      <path d="M0,0 L0,6 L9,3 z" fill="context-stroke"/>
    </marker>
    <style>
      text { font-family: Arial, "Noto Sans SC", "Microsoft YaHei", sans-serif; letter-spacing: 0; }
      .kicker { font-size: 16px; font-weight: 700; }
      .title { font-size: 29px; font-weight: 750; fill: #17231f; }
      .panel-title { font-size: 18px; font-weight: 700; }
      .label { font-size: 18px; fill: #17231f; }
      .small { font-size: 15px; fill: #60706a; }
      .micro { font-size: 13px; fill: #60706a; }
      .strong { font-weight: 700; }
      .metric { font-size: 27px; font-weight: 750; fill: #174a3a; }
    </style>
  </defs>
  <rect width="1200" height="675" fill="#f4f8f6"/>
  <rect x="26" y="26" width="1148" height="623" rx="8" fill="#ffffff" stroke="#cfdad6" stroke-width="2"/>
  <text x="56" y="62" class-="kicker" fill="#16827c">HYBRID LASER WELDING · AL ALLOYS</text>
  <text x="56" y="103" class-="title"><tspan x="56" dy="0">Crystal plasticity from nanoscale to welded joint</tspan></text>
  <line x1="56" y1="142" x2="1144" y2="142" stroke="#cfdad6" stroke-width="2"/>
  <g transform="translate(0 0)"><rect x="55" y="185" width="1090" height="380" fill="#ffffff" stroke="#cfdad6" rx="6" stroke-width="2"/><rect x="55" y="185" width="8" height="380" fill="#367f9d" stroke="#367f9d" rx="4" stroke-width="0"/><text x="81" y="219" class-="panel-title" fill="#367f9d">MULTISCALE TRANSFER</text><rect x="95" y="270" width="225" height="210" fill="#ffffff" stroke="#cfdad6" rx="6" stroke-width="2"/><text x="207" y="305" class-="panel-title" text-anchor="middle" fill="#cc624f">NANO</text><rect x="157" y="335" width="100" height="26" fill="#81939b" stroke="#17231f" rx="2" stroke-width="2"/><rect x="185" y="363" width="44" height="88" fill="#d6b779" stroke="#17231f" rx="4" stroke-width="2"/><line x1="207" y1="320" x2="207" y2="333" stroke="#cc624f" stroke-width="4" marker-end="url(#arrow)"/><text x="207" y="468" class-="small" text-anchor="middle">pillar response</text><line x1="340" y1="375" x2="405" y2="375" stroke="#60706a" stroke-width="4" marker-end="url(#arrow)"/><rect x="425" y="270" width="300" height="210" fill="#ffffff" stroke="#cfdad6" rx="6" stroke-width="2"/><text x="575" y="305" class-="panel-title" text-anchor="middle" fill="#16827c">MICRO</text><circle cx="575" cy="390" r="76" fill="#ffffff" stroke="#17231f" stroke-width="3"/><polygon points="575,390 503,378 555,319" fill="#d8eee8" stroke="#ffffff" stroke-width="2"/><polygon points="575,390 555,319 610,322" fill="#9ed2c8" stroke="#ffffff" stroke-width="2"/><polygon points="575,390 610,322 647,395" fill="#efc98a" stroke="#ffffff" stroke-width="2"/><polygon points="575,390 647,395 595,461" fill="#d99078" stroke="#ffffff" stroke-width="2"/><polygon points="575,390 595,461 539,458" fill="#d8eee8" stroke="#ffffff" stroke-width="2"/><polygon points="575,390 539,458 503,378" fill="#9ed2c8" stroke="#ffffff" stroke-width="2"/><circle cx="575" cy="390" r="76" fill="none" stroke="#17231f" stroke-width="3"/><text x="575" y="468" class-="small" text-anchor="middle">crystal plasticity</text><line x1="745" y1="375" x2="810" y2="375" stroke="#60706a" stroke-width="4" marker-end="url(#arrow)"/><rect x="830" y="270" width="275" height="210" fill="#ffffff" stroke="#cfdad6" rx="6" stroke-width="2"/><text x="967" y="305" class-="panel-title" text-anchor="middle" fill="#174a3a">MACRO</text><rect x="865" y="365" width="205" height="46" fill="#cbd6da" stroke="#17231f" rx="2" stroke-width="2"/><path d="M 950 365 q 17 23 34 0 t 34 0" fill="#d78267" stroke="#cc624f" stroke-width="5"/><text x="967" y="452" class-="small" text-anchor="middle">joint yield strength</text><rect x="385" y="515" width="430" height="38" fill="#f4f8f6" stroke="none" rx="19" stroke-width="0"/><text x="600.0" y="541" class-="small strong" text-anchor="middle" fill="#367f9d">EXPERIMENT ↔ MODEL ↔ JOINT</text></g>
</svg>
