<svg xmlns="http://www.w3.org/2000/svg" viewBox="0 0 1200 675" role="img" aria-labelledby="title desc">
  <title id="title">Choosing a driver plate for Ti-6Al-4V</title>
  <desc id="desc">Driver material and thickness govern energy transfer, efficiency, and deformation uniformity when electromagnetic forming is applied to low-conductivity titanium sheet.</desc>
  <defs>
    <marker id="arrow" markerWidth="10" markerHeight="10" refX="8" refY="3" orient="auto" markerUnits="strokeWidth">
      <path d="M0,0 L0,6 L9,3 z" fill="context-stroke"/>
    </marker>
    <style>
      text { font-family: Arial, "Noto Sans SC", "Microsoft YaHei", sans-serif; letter-spacing: 0; }
      .kicker { font-size: 16px; font-weight: 700; }
      .title { font-size: 29px; font-weight: 750; fill: #17231f; }
      .panel-title { font-size: 18px; font-weight: 700; }
      .label { font-size: 18px; fill: #17231f; }
      .small { font-size: 15px; fill: #60706a; }
      .micro { font-size: 13px; fill: #60706a; }
      .strong { font-weight: 700; }
      .metric { font-size: 27px; font-weight: 750; fill: #174a3a; }
    </style>
  </defs>
  <rect width="1200" height="675" fill="#f4f8f6"/>
  <rect x="26" y="26" width="1148" height="623" rx="8" fill="#ffffff" stroke="#cfdad6" stroke-width="2"/>
  <text x="56" y="62" class-="kicker" fill="#16827c">ELECTROMAGNETIC FORMING · PROCESS DESIGN</text>
  <text x="56" y="103" class-="title"><tspan x="56" dy="0">Choosing a driver plate for Ti-6Al-4V</tspan></text>
  <line x1="56" y1="142" x2="1144" y2="142" stroke="#cfdad6" stroke-width="2"/>
  <g transform="translate(0 0)"><rect x="55" y="185" width="520" height="380" fill="#ffffff" stroke="#cfdad6" rx="6" stroke-width="2"/><rect x="55" y="185" width="8" height="380" fill="#d99a32" stroke="#d99a32" rx="4" stroke-width="0"/><text x="81" y="219" class-="panel-title" fill="#d99a32">DRIVER-ASSISTED FORMING</text><ellipse cx="315" cy="490" rx="175" ry="34" fill="none" stroke="#d99a32" stroke-width="4"/><ellipse cx="315" cy="490" rx="140" ry="34" fill="none" stroke="#d99a32" stroke-width="4"/><ellipse cx="315" cy="490" rx="105" ry="34" fill="none" stroke="#d99a32" stroke-width="4"/><ellipse cx="315" cy="490" rx="70" ry="34" fill="none" stroke="#d99a32" stroke-width="4"/><path d="M 135 430 C 210 265, 420 265, 495 430" fill="#d6b779" stroke="#cc624f" stroke-width="4"/><path d="M 145 438 C 220 290, 410 290, 485 438" fill="#c7d5da" stroke="#16827c" stroke-width="4"/><text x="315" y="245" class-="panel-title" text-anchor="middle" fill="#d99a32">high-conductivity driver</text><text x="315" y="535" class-="small strong" text-anchor="middle">Ti-6Al-4V workpiece</text><rect x="610" y="185" width="535" height="380" fill="#ffffff" stroke="#cfdad6" rx="6" stroke-width="2"/><rect x="610" y="185" width="8" height="380" fill="#174a3a" stroke="#174a3a" rx="4" stroke-width="0"/><text x="636" y="219" class-="panel-title" fill="#174a3a">SELECTION LOGIC</text><text x="655" y="245" class-="small strong">Conductivity</text><rect x="655" y="263" width="410" height="16" fill="#e8eeeb" stroke="none" rx="8" stroke-width="0"/><rect x="655" y="263" width="377.2" height="16" fill="#367f9d" stroke="none" rx="8" stroke-width="0"/><text x="655" y="315" class-="small strong">Formability</text><rect x="655" y="333" width="410" height="16" fill="#e8eeeb" stroke="none" rx="8" stroke-width="0"/><rect x="655" y="333" width="348.5" height="16" fill="#16827c" stroke="none" rx="8" stroke-width="0"/><text x="655" y="385" class-="small strong">Thickness / skin depth</text><rect x="655" y="403" width="410" height="16" fill="#e8eeeb" stroke="none" rx="8" stroke-width="0"/><rect x="655" y="403" width="278.8" height="16" fill="#d99a32" stroke="none" rx="8" stroke-width="0"/><text x="655" y="455" class-="small strong">Uniform deformation</text><rect x="655" y="473" width="410" height="16" fill="#e8eeeb" stroke="none" rx="8" stroke-width="0"/><rect x="655" y="473" width="360.8" height="16" fill="#cc624f" stroke="none" rx="8" stroke-width="0"/><rect x="725" y="515" width="300" height="38" fill="#e7f2ed" stroke="none" rx="19" stroke-width="0"/><text x="875.0" y="541" class-="small strong" text-anchor="middle" fill="#174a3a">EFFICIENCY + UNIFORMITY</text></g>
</svg>
