<svg xmlns="http://www.w3.org/2000/svg" viewBox="0 0 1200 675" role="img" aria-labelledby="title desc">
  <title id="title">Spatial-temporal learning for energy piles</title>
  <desc id="desc">Soil temperature sensors feed a convolutional neural network and a temporal LSTM model to predict energy-pile outlet water temperature.</desc>
  <defs>
    <marker id="arrow" markerWidth="10" markerHeight="10" refX="8" refY="3" orient="auto" markerUnits="strokeWidth">
      <path d="M0,0 L0,6 L9,3 z" fill="context-stroke"/>
    </marker>
    <style>
      text { font-family: Arial, "Noto Sans SC", "Microsoft YaHei", sans-serif; letter-spacing: 0; }
      .kicker { font-size: 16px; font-weight: 700; }
      .title { font-size: 29px; font-weight: 750; fill: #17231f; }
      .panel-title { font-size: 18px; font-weight: 700; }
      .label { font-size: 18px; fill: #17231f; }
      .small { font-size: 15px; fill: #60706a; }
      .micro { font-size: 13px; fill: #60706a; }
      .strong { font-weight: 700; }
      .metric { font-size: 27px; font-weight: 750; fill: #174a3a; }
    </style>
  </defs>
  <rect width="1200" height="675" fill="#f4f8f6"/>
  <rect x="26" y="26" width="1148" height="623" rx="8" fill="#ffffff" stroke="#cfdad6" stroke-width="2"/>
  <text x="56" y="62" class-="kicker" fill="#16827c">CNN-LSTM WORKFLOW</text>
  <text x="56" y="103" class-="title"><tspan x="56" dy="0">Spatial-temporal learning for energy piles</tspan></text>
  <line x1="56" y1="142" x2="1144" y2="142" stroke="#cfdad6" stroke-width="2"/>
  <g transform="translate(0 0)"><rect x="55" y="185" width="330" height="380" fill="#ffffff" stroke="#cfdad6" rx="6" stroke-width="2"/><rect x="55" y="185" width="8" height="380" fill="#367f9d" stroke="#367f9d" rx="4" stroke-width="0"/><text x="81" y="219" class-="panel-title" fill="#367f9d">ENERGY PILE</text><rect x="85" y="255" width="270" height="72" fill="#dfe9e4" stroke="none" rx="0" stroke-width="0"/><rect x="85" y="330" width="270" height="72" fill="#ceded7" stroke="none" rx="0" stroke-width="0"/><rect x="85" y="405" width="270" height="72" fill="#b8d0c7" stroke="none" rx="0" stroke-width="0"/><rect x="205" y="226" width="34" height="292" fill="#81939b" stroke="#17231f" rx="2" stroke-width="2"/><path d="M 219 254 v 220 q 0 25 25 25 h 16 q 25 0 25 -25 v -220" fill="none" stroke="#cc624f" stroke-width="8"/><circle cx="130" cy="278" r="9" fill="#16827c" stroke="#ffffff" stroke-width="2"/><circle cx="305" cy="300" r="9" fill="#16827c" stroke="#ffffff" stroke-width="2"/><circle cx="130" cy="350" r="9" fill="#16827c" stroke="#ffffff" stroke-width="2"/><circle cx="305" cy="372" r="9" fill="#16827c" stroke="#ffffff" stroke-width="2"/><circle cx="130" cy="422" r="9" fill="#16827c" stroke="#ffffff" stroke-width="2"/><circle cx="305" cy="444" r="9" fill="#16827c" stroke="#ffffff" stroke-width="2"/><text x="220" y="548" class-="small" text-anchor="middle">soil temperature field</text><line x1="405" y1="375" x2="465" y2="375" stroke="#60706a" stroke-width="4" marker-end="url(#arrow)"/><rect x="485" y="185" width="280" height="380" fill="#ffffff" stroke="#cfdad6" rx="6" stroke-width="2"/><rect x="485" y="185" width="8" height="380" fill="#16827c" stroke="#16827c" rx="4" stroke-width="0"/><text x="511" y="219" class-="panel-title" fill="#16827c">SPATIAL FEATURES</text><rect x="535" y="255" width="28" height="28" fill="#d7ece8" stroke="#ffffff" rx="2" stroke-width="1"/><rect x="569" y="255" width="28" height="28" fill="#4ca99f" stroke="#ffffff" rx="2" stroke-width="1"/><rect x="603" y="255" width="28" height="28" fill="#d7ece8" stroke="#ffffff" rx="2" stroke-width="1"/><rect x="637" y="255" width="28" height="28" fill="#4ca99f" stroke="#ffffff" rx="2" stroke-width="1"/><rect x="671" y="255" width="28" height="28" fill="#d7ece8" stroke="#ffffff" rx="2" stroke-width="1"/><rect x="535" y="289" width="28" height="28" fill="#9fd3ca" stroke="#ffffff" rx="2" stroke-width="1"/><rect x="569" y="289" width="28" height="28" fill="#1b746f" stroke="#ffffff" rx="2" stroke-width="1"/><rect x="603" y="289" width="28" height="28" fill="#9fd3ca" stroke="#ffffff" rx="2" stroke-width="1"/><rect x="637" y="289" width="28" height="28" fill="#1b746f" stroke="#ffffff" rx="2" stroke-width="1"/><rect x="671" y="289" width="28" height="28" fill="#9fd3ca" stroke="#ffffff" rx="2" stroke-width="1"/><rect x="535" y="323" width="28" height="28" fill="#4ca99f" stroke="#ffffff" rx="2" stroke-width="1"/><rect x="569" y="323" width="28" height="28" fill="#d7ece8" stroke="#ffffff" rx="2" stroke-width="1"/><rect x="603" y="323" width="28" height="28" fill="#4ca99f" stroke="#ffffff" rx="2" stroke-width="1"/><rect x="637" y="323" width="28" height="28" fill="#d7ece8" stroke="#ffffff" rx="2" stroke-width="1"/><rect x="671" y="323" width="28" height="28" fill="#4ca99f" stroke="#ffffff" rx="2" stroke-width="1"/><rect x="535" y="357" width="28" height="28" fill="#1b746f" stroke="#ffffff" rx="2" stroke-width="1"/><rect x="569" y="357" width="28" height="28" fill="#9fd3ca" stroke="#ffffff" rx="2" stroke-width="1"/><rect x="603" y="357" width="28" height="28" fill="#1b746f" stroke="#ffffff" rx="2" stroke-width="1"/><rect x="637" y="357" width="28" height="28" fill="#9fd3ca" stroke="#ffffff" rx="2" stroke-width="1"/><rect x="671" y="357" width="28" height="28" fill="#1b746f" stroke="#ffffff" rx="2" stroke-width="1"/><rect x="535" y="391" width="28" height="28" fill="#d7ece8" stroke="#ffffff" rx="2" stroke-width="1"/><rect x="569" y="391" width="28" height="28" fill="#4ca99f" stroke="#ffffff" rx="2" stroke-width="1"/><rect x="603" y="391" width="28" height="28" fill="#d7ece8" stroke="#ffffff" rx="2" stroke-width="1"/><rect x="637" y="391" width="28" height="28" fill="#4ca99f" stroke="#ffffff" rx="2" stroke-width="1"/><rect x="671" y="391" width="28" height="28" fill="#d7ece8" stroke="#ffffff" rx="2" stroke-width="1"/><text x="625" y="450" class-="metric" text-anchor="middle" fill="#16827c">CNN</text><text x="625" y="480" class-="small" text-anchor="middle">extracts spatial patterns</text><line x1="785" y1="375" x2="840" y2="375" stroke="#60706a" stroke-width="4" marker-end="url(#arrow)"/><rect x="860" y="185" width="285" height="380" fill="#ffffff" stroke="#cfdad6" rx="6" stroke-width="2"/><rect x="860" y="185" width="8" height="380" fill="#174a3a" stroke="#174a3a" rx="4" stroke-width="0"/><text x="886" y="219" class-="panel-title" fill="#174a3a">TEMPORAL PREDICTION</text><rect x="900" y="255" width="55" height="55" fill="#e6f2ed" stroke="#174a3a" rx="6" stroke-width="2"/><text x="927" y="289" class-="small strong" text-anchor="middle" fill="#174a3a">t1</text><line x1="958" y1="282" x2="968" y2="282" stroke="#174a3a" stroke-width="3" marker-end="url(#arrow)"/><rect x="970" y="255" width="55" height="55" fill="#e6f2ed" stroke="#174a3a" rx="6" stroke-width="2"/><text x="997" y="289" class-="small strong" text-anchor="middle" fill="#174a3a">t2</text><line x1="1028" y1="282" x2="1038" y2="282" stroke="#174a3a" stroke-width="3" marker-end="url(#arrow)"/><rect x="1040" y="255" width="55" height="55" fill="#e6f2ed" stroke="#174a3a" rx="6" stroke-width="2"/><text x="1067" y="289" class-="small strong" text-anchor="middle" fill="#174a3a">t3</text><text x="1000" y="345" class-="metric" text-anchor="middle" fill="#174a3a">LSTM</text><path d="M 900 470 C 945 425, 982 485, 1025 438 S 1090 432, 1110 400" fill="none" stroke="#cc624f" stroke-width="5"/><line x1="900" y1="490" x2="1110" y2="490" stroke="#cfdad6" stroke-width="2"/><text x="1005" y="525" class-="small" text-anchor="middle">outlet water temperature</text></g>
</svg>
