<svg xmlns="http://www.w3.org/2000/svg" viewBox="0 0 1200 675" role="img" aria-labelledby="title desc">
  <title id="title">Resilience-led intelligent shield-tunnel construction</title>
  <desc id="desc">A sensor-enabled shield tunnel connects resilient design, intelligent sensing, manufacturing, and segment assembly in a continuous digital loop.</desc>
  <defs>
    <marker id="arrow" markerWidth="10" markerHeight="10" refX="8" refY="3" orient="auto" markerUnits="strokeWidth">
      <path d="M0,0 L0,6 L9,3 z" fill="context-stroke"/>
    </marker>
    <style>
      text { font-family: Arial, "Noto Sans SC", "Microsoft YaHei", sans-serif; letter-spacing: 0; }
      .kicker { font-size: 16px; font-weight: 700; }
      .title { font-size: 29px; font-weight: 750; fill: #17231f; }
      .panel-title { font-size: 18px; font-weight: 700; }
      .label { font-size: 18px; fill: #17231f; }
      .small { font-size: 15px; fill: #60706a; }
      .micro { font-size: 13px; fill: #60706a; }
      .strong { font-weight: 700; }
      .metric { font-size: 27px; font-weight: 750; fill: #174a3a; }
    </style>
  </defs>
  <rect width="1200" height="675" fill="#f4f8f6"/>
  <rect x="26" y="26" width="1148" height="623" rx="8" fill="#ffffff" stroke="#cfdad6" stroke-width="2"/>
  <text x="56" y="62" class-="kicker" fill="#16827c">韧性理论 · 智能建造</text>
  <text x="56" y="103" class-="title"><tspan x="56" dy="0">Resilience-led intelligent shield-tunnel construction</tspan></text>
  <line x1="56" y1="142" x2="1144" y2="142" stroke="#cfdad6" stroke-width="2"/>
  <g transform="translate(0 0)"><rect x="55" y="185" width="520" height="380" fill="#ffffff" stroke="#cfdad6" rx="6" stroke-width="2"/><rect x="55" y="185" width="8" height="380" fill="#367f9d" stroke="#367f9d" rx="4" stroke-width="0"/><text x="81" y="219" class-="panel-title" fill="#367f9d">盾构隧道 DIGITAL TUNNEL</text><circle cx="310" cy="380" r="145" fill="#e9f0ed" stroke="#81939b" stroke-width="28"/><circle cx="310" cy="380" r="98" fill="#ffffff" stroke="#17231f" stroke-width="3"/><line x1="310" y1="235" x2="310" y2="282" stroke="#ffffff" stroke-width="5"/><line x1="310" y1="478" x2="310" y2="525" stroke="#ffffff" stroke-width="5"/><line x1="165" y1="380" x2="212" y2="380" stroke="#ffffff" stroke-width="5"/><line x1="408" y1="380" x2="455" y2="380" stroke="#ffffff" stroke-width="5"/><line x1="208" y1="278" x2="240" y2="310" stroke="#ffffff" stroke-width="5"/><line x1="380" y1="450" x2="412" y2="482" stroke="#ffffff" stroke-width="5"/><circle cx="224" cy="275" r="11" fill="#16827c" stroke="#ffffff" stroke-width="3"/><path d="M 204 257 q 20 -18 40 0" fill="none" stroke="#16827c" stroke-width="2"/><circle cx="400" cy="335" r="11" fill="#16827c" stroke="#ffffff" stroke-width="3"/><path d="M 380 317 q 20 -18 40 0" fill="none" stroke="#16827c" stroke-width="2"/><circle cx="345" cy="475" r="11" fill="#16827c" stroke="#ffffff" stroke-width="3"/><path d="M 325 457 q 20 -18 40 0" fill="none" stroke="#16827c" stroke-width="2"/><circle cx="185" cy="420" r="11" fill="#16827c" stroke="#ffffff" stroke-width="3"/><path d="M 165 402 q 20 -18 40 0" fill="none" stroke="#16827c" stroke-width="2"/><text x="310" y="386" class-="panel-title" text-anchor="middle" fill="#174a3a">实时数字孪生</text><rect x="610" y="185" width="535" height="380" fill="#ffffff" stroke="#cfdad6" rx="6" stroke-width="2"/><rect x="610" y="185" width="8" height="380" fill="#174a3a" stroke="#174a3a" rx="4" stroke-width="0"/><text x="636" y="219" class-="panel-title" fill="#174a3a">韧性闭环 RESILIENCE LOOP</text><circle cx="735" cy="285" r="58" fill="#ffffff" stroke="#367f9d" stroke-width="5"/><text x="735" y="280" class-="small strong" text-anchor="middle" fill="#367f9d">01</text><text x="735" y="308" class-="small strong" text-anchor="middle" fill="#17231f">韧性设计</text><circle cx="1015" cy="285" r="58" fill="#ffffff" stroke="#16827c" stroke-width="5"/><text x="1015" y="280" class-="small strong" text-anchor="middle" fill="#16827c">02</text><text x="1015" y="308" class-="small strong" text-anchor="middle" fill="#17231f">智能感知</text><circle cx="1015" cy="465" r="58" fill="#ffffff" stroke="#d99a32" stroke-width="5"/><text x="1015" y="460" class-="small strong" text-anchor="middle" fill="#d99a32">03</text><text x="1015" y="488" class-="small strong" text-anchor="middle" fill="#17231f">智能制造</text><circle cx="735" cy="465" r="58" fill="#ffffff" stroke="#cc624f" stroke-width="5"/><text x="735" y="460" class-="small strong" text-anchor="middle" fill="#cc624f">04</text><text x="735" y="488" class-="small strong" text-anchor="middle" fill="#17231f">智能拼装</text><path d="M 800 285 C 855 235, 950 235, 955 275" fill="none" stroke="#174a3a" stroke-width="4" marker-end="url(#arrow)"/><path d="M 1015 350 C 1065 370, 1065 415, 1025 420" fill="none" stroke="#174a3a" stroke-width="4" marker-end="url(#arrow)"/><path d="M 950 465 C 900 520, 805 520, 795 475" fill="none" stroke="#174a3a" stroke-width="4" marker-end="url(#arrow)"/><path d="M 735 400 C 675 385, 675 330, 720 330" fill="none" stroke="#174a3a" stroke-width="4" marker-end="url(#arrow)"/></g>
</svg>
